<?xml version="1.0" encoding="UTF-8" standalone="no"?>
<!DOCTYPE svg PUBLIC "-//W3C//DTD SVG 1.1//EN"
 "http://www.w3.org/Graphics/SVG/1.1/DTD/svg11.dtd">
<!-- Generated by graphviz version 2.43.0 (0)
 -->
<!-- Title: %3 Pages: 1 -->
<svg width="990pt" height="764pt"
 viewBox="0.00 0.00 989.50 764.00" xmlns="http://www.w3.org/2000/svg" xmlns:xlink="http://www.w3.org/1999/xlink">
<g id="graph0" class="graph" transform="scale(1 1) rotate(0) translate(4 760)">
<title>%3</title>
<polygon fill="white" stroke="transparent" points="-4,4 -4,-760 985.5,-760 985.5,4 -4,4"/>
<!-- [root] aws_eip.pub_addr_1 (expand) -->
<g id="node1" class="node">
<title>[root] aws_eip.pub_addr_1 (expand)</title>
<polygon fill="none" stroke="black" points="531.5,-468 402.5,-468 402.5,-432 531.5,-432 531.5,-468"/>
<text text-anchor="middle" x="467" y="-446.3" font-family="Times,serif" font-size="14.00">aws_eip.pub_addr_1</text>
</g>
<!-- [root] aws_network_interface.netif_1 (expand) -->
<g id="node5" class="node">
<title>[root] aws_network_interface.netif_1 (expand)</title>
<polygon fill="none" stroke="black" points="559.5,-396 374.5,-396 374.5,-360 559.5,-360 559.5,-396"/>
<text text-anchor="middle" x="467" y="-374.3" font-family="Times,serif" font-size="14.00">aws_network_interface.netif_1</text>
</g>
<!-- [root] aws_eip.pub_addr_1 (expand)&#45;&gt;[root] aws_network_interface.netif_1 (expand) -->
<g id="edge1" class="edge">
<title>[root] aws_eip.pub_addr_1 (expand)&#45;&gt;[root] aws_network_interface.netif_1 (expand)</title>
<path fill="none" stroke="black" d="M467,-431.7C467,-423.98 467,-414.71 467,-406.11"/>
<polygon fill="black" stroke="black" points="470.5,-406.1 467,-396.1 463.5,-406.1 470.5,-406.1"/>
</g>
<!-- [root] aws_instance.virtual_machine (expand) -->
<g id="node2" class="node">
<title>[root] aws_instance.virtual_machine (expand)</title>
<polygon fill="none" stroke="black" points="754.5,-468 573.5,-468 573.5,-432 754.5,-432 754.5,-468"/>
<text text-anchor="middle" x="664" y="-446.3" font-family="Times,serif" font-size="14.00">aws_instance.virtual_machine</text>
</g>
<!-- [root] aws_key_pair.key&#45;pair&#45;1 (expand) -->
<g id="node4" class="node">
<title>[root] aws_key_pair.key&#45;pair&#45;1 (expand)</title>
<polygon fill="none" stroke="black" points="853.5,-180 702.5,-180 702.5,-144 853.5,-144 853.5,-180"/>
<text text-anchor="middle" x="778" y="-158.3" font-family="Times,serif" font-size="14.00">aws_key_pair.key&#45;pair&#45;1</text>
</g>
<!-- [root] aws_instance.virtual_machine (expand)&#45;&gt;[root] aws_key_pair.key&#45;pair&#45;1 (expand) -->
<g id="edge2" class="edge">
<title>[root] aws_instance.virtual_machine (expand)&#45;&gt;[root] aws_key_pair.key&#45;pair&#45;1 (expand)</title>
<path fill="none" stroke="black" d="M714.96,-431.88C731.72,-423.68 748.68,-412.04 759,-396 800.25,-331.88 791.19,-236.39 783.44,-190.1"/>
<polygon fill="black" stroke="black" points="786.88,-189.45 781.68,-180.22 779.99,-190.68 786.88,-189.45"/>
</g>
<!-- [root] aws_instance.virtual_machine (expand)&#45;&gt;[root] aws_network_interface.netif_1 (expand) -->
<g id="edge3" class="edge">
<title>[root] aws_instance.virtual_machine (expand)&#45;&gt;[root] aws_network_interface.netif_1 (expand)</title>
<path fill="none" stroke="black" d="M616.06,-431.97C588.53,-422.19 553.78,-409.84 524.76,-399.52"/>
<polygon fill="black" stroke="black" points="525.75,-396.16 515.15,-396.11 523.41,-402.76 525.75,-396.16"/>
</g>
<!-- [root] data.aws_ami.debian_image (expand) -->
<g id="node11" class="node">
<title>[root] data.aws_ami.debian_image (expand)</title>
<polygon fill="none" stroke="black" points="750,-396 578,-396 578,-360 750,-360 750,-396"/>
<text text-anchor="middle" x="664" y="-374.3" font-family="Times,serif" font-size="14.00">data.aws_ami.debian_image</text>
</g>
<!-- [root] aws_instance.virtual_machine (expand)&#45;&gt;[root] data.aws_ami.debian_image (expand) -->
<g id="edge4" class="edge">
<title>[root] aws_instance.virtual_machine (expand)&#45;&gt;[root] data.aws_ami.debian_image (expand)</title>
<path fill="none" stroke="black" d="M664,-431.7C664,-423.98 664,-414.71 664,-406.11"/>
<polygon fill="black" stroke="black" points="667.5,-406.1 664,-396.1 660.5,-406.1 667.5,-406.1"/>
</g>
<!-- [root] aws_internet_gateway.net_1_gw_1 (expand) -->
<g id="node3" class="node">
<title>[root] aws_internet_gateway.net_1_gw_1 (expand)</title>
<polygon fill="none" stroke="black" points="451.5,-252 244.5,-252 244.5,-216 451.5,-216 451.5,-252"/>
<text text-anchor="middle" x="348" y="-230.3" font-family="Times,serif" font-size="14.00">aws_internet_gateway.net_1_gw_1</text>
</g>
<!-- [root] aws_vpc.net_1 (expand) -->
<g id="node10" class="node">
<title>[root] aws_vpc.net_1 (expand)</title>
<polygon fill="none" stroke="black" points="526,-180 428,-180 428,-144 526,-144 526,-180"/>
<text text-anchor="middle" x="477" y="-158.3" font-family="Times,serif" font-size="14.00">aws_vpc.net_1</text>
</g>
<!-- [root] aws_internet_gateway.net_1_gw_1 (expand)&#45;&gt;[root] aws_vpc.net_1 (expand) -->
<g id="edge5" class="edge">
<title>[root] aws_internet_gateway.net_1_gw_1 (expand)&#45;&gt;[root] aws_vpc.net_1 (expand)</title>
<path fill="none" stroke="black" d="M379.56,-215.88C396.66,-206.6 417.98,-195.03 436.32,-185.08"/>
<polygon fill="black" stroke="black" points="438.2,-188.04 445.32,-180.19 434.86,-181.88 438.2,-188.04"/>
</g>
<!-- [root] provider[&quot;registry.terraform.io/hashicorp/aws&quot;] -->
<g id="node14" class="node">
<title>[root] provider[&quot;registry.terraform.io/hashicorp/aws&quot;]</title>
<polygon fill="none" stroke="black" points="473,-108 220.46,-90 473,-72 725.54,-90 473,-108"/>
<text text-anchor="middle" x="473" y="-86.3" font-family="Times,serif" font-size="14.00">provider[&quot;registry.terraform.io/hashicorp/aws&quot;]</text>
</g>
<!-- [root] aws_key_pair.key&#45;pair&#45;1 (expand)&#45;&gt;[root] provider[&quot;registry.terraform.io/hashicorp/aws&quot;] -->
<g id="edge6" class="edge">
<title>[root] aws_key_pair.key&#45;pair&#45;1 (expand)&#45;&gt;[root] provider[&quot;registry.terraform.io/hashicorp/aws&quot;]</title>
<path fill="none" stroke="black" d="M703.78,-143.97C653.63,-132.46 587.99,-117.39 539.53,-106.27"/>
<polygon fill="black" stroke="black" points="540.31,-102.86 529.78,-104.03 538.74,-109.68 540.31,-102.86"/>
</g>
<!-- [root] var.prefix -->
<g id="node18" class="node">
<title>[root] var.prefix</title>
<polygon fill="none" stroke="black" points="806.5,-108 743.5,-108 743.5,-72 812.5,-72 812.5,-102 806.5,-108"/>
<polyline fill="none" stroke="black" points="806.5,-108 806.5,-102 "/>
<polyline fill="none" stroke="black" points="812.5,-102 806.5,-102 "/>
<text text-anchor="middle" x="778" y="-86.3" font-family="Times,serif" font-size="14.00">var.prefix</text>
</g>
<!-- [root] aws_key_pair.key&#45;pair&#45;1 (expand)&#45;&gt;[root] var.prefix -->
<g id="edge7" class="edge">
<title>[root] aws_key_pair.key&#45;pair&#45;1 (expand)&#45;&gt;[root] var.prefix</title>
<path fill="none" stroke="black" d="M778,-143.7C778,-135.98 778,-126.71 778,-118.11"/>
<polygon fill="black" stroke="black" points="781.5,-118.1 778,-108.1 774.5,-118.1 781.5,-118.1"/>
</g>
<!-- [root] var.ssh_public_key_path -->
<g id="node19" class="node">
<title>[root] var.ssh_public_key_path</title>
<polygon fill="none" stroke="black" points="975.5,-108 830.5,-108 830.5,-72 981.5,-72 981.5,-102 975.5,-108"/>
<polyline fill="none" stroke="black" points="975.5,-108 975.5,-102 "/>
<polyline fill="none" stroke="black" points="981.5,-102 975.5,-102 "/>
<text text-anchor="middle" x="906" y="-86.3" font-family="Times,serif" font-size="14.00">var.ssh_public_key_path</text>
</g>
<!-- [root] aws_key_pair.key&#45;pair&#45;1 (expand)&#45;&gt;[root] var.ssh_public_key_path -->
<g id="edge8" class="edge">
<title>[root] aws_key_pair.key&#45;pair&#45;1 (expand)&#45;&gt;[root] var.ssh_public_key_path</title>
<path fill="none" stroke="black" d="M809.31,-143.88C826.2,-134.64 847.25,-123.13 865.38,-113.21"/>
<polygon fill="black" stroke="black" points="867.47,-116.06 874.57,-108.19 864.11,-109.92 867.47,-116.06"/>
</g>
<!-- [root] aws_security_group.sec_grp_1 (expand) -->
<g id="node8" class="node">
<title>[root] aws_security_group.sec_grp_1 (expand)</title>
<polygon fill="none" stroke="black" points="636.5,-324 451.5,-324 451.5,-288 636.5,-288 636.5,-324"/>
<text text-anchor="middle" x="544" y="-302.3" font-family="Times,serif" font-size="14.00">aws_security_group.sec_grp_1</text>
</g>
<!-- [root] aws_network_interface.netif_1 (expand)&#45;&gt;[root] aws_security_group.sec_grp_1 (expand) -->
<g id="edge9" class="edge">
<title>[root] aws_network_interface.netif_1 (expand)&#45;&gt;[root] aws_security_group.sec_grp_1 (expand)</title>
<path fill="none" stroke="black" d="M486.03,-359.7C495.54,-351.05 507.21,-340.45 517.57,-331.03"/>
<polygon fill="black" stroke="black" points="520.14,-333.42 525.19,-324.1 515.43,-328.24 520.14,-333.42"/>
</g>
<!-- [root] aws_subnet.net_1_subnet_1 (expand) -->
<g id="node9" class="node">
<title>[root] aws_subnet.net_1_subnet_1 (expand)</title>
<polygon fill="none" stroke="black" points="224.5,-324 55.5,-324 55.5,-288 224.5,-288 224.5,-324"/>
<text text-anchor="middle" x="140" y="-302.3" font-family="Times,serif" font-size="14.00">aws_subnet.net_1_subnet_1</text>
</g>
<!-- [root] aws_network_interface.netif_1 (expand)&#45;&gt;[root] aws_subnet.net_1_subnet_1 (expand) -->
<g id="edge10" class="edge">
<title>[root] aws_network_interface.netif_1 (expand)&#45;&gt;[root] aws_subnet.net_1_subnet_1 (expand)</title>
<path fill="none" stroke="black" d="M387.42,-359.97C339.76,-349.76 279.04,-336.76 229.68,-326.2"/>
<polygon fill="black" stroke="black" points="230.16,-322.72 219.65,-324.05 228.69,-329.57 230.16,-322.72"/>
</g>
<!-- [root] aws_route_table.net_1_gw_1_rt (expand) -->
<g id="node6" class="node">
<title>[root] aws_route_table.net_1_gw_1_rt (expand)</title>
<polygon fill="none" stroke="black" points="433.5,-324 242.5,-324 242.5,-288 433.5,-288 433.5,-324"/>
<text text-anchor="middle" x="338" y="-302.3" font-family="Times,serif" font-size="14.00">aws_route_table.net_1_gw_1_rt</text>
</g>
<!-- [root] aws_route_table.net_1_gw_1_rt (expand)&#45;&gt;[root] aws_internet_gateway.net_1_gw_1 (expand) -->
<g id="edge11" class="edge">
<title>[root] aws_route_table.net_1_gw_1_rt (expand)&#45;&gt;[root] aws_internet_gateway.net_1_gw_1 (expand)</title>
<path fill="none" stroke="black" d="M340.47,-287.7C341.57,-279.98 342.9,-270.71 344.13,-262.11"/>
<polygon fill="black" stroke="black" points="347.61,-262.5 345.56,-252.1 340.68,-261.51 347.61,-262.5"/>
</g>
<!-- [root] aws_route_table_association.net_1_subnet_1_rt (expand) -->
<g id="node7" class="node">
<title>[root] aws_route_table_association.net_1_subnet_1_rt (expand)</title>
<polygon fill="none" stroke="black" points="319,-468 43,-468 43,-432 319,-432 319,-468"/>
<text text-anchor="middle" x="181" y="-446.3" font-family="Times,serif" font-size="14.00">aws_route_table_association.net_1_subnet_1_rt</text>
</g>
<!-- [root] aws_route_table_association.net_1_subnet_1_rt (expand)&#45;&gt;[root] aws_route_table.net_1_gw_1_rt (expand) -->
<g id="edge12" class="edge">
<title>[root] aws_route_table_association.net_1_subnet_1_rt (expand)&#45;&gt;[root] aws_route_table.net_1_gw_1_rt (expand)</title>
<path fill="none" stroke="black" d="M199.94,-431.87C227.76,-406.71 279.78,-359.65 311.42,-331.04"/>
<polygon fill="black" stroke="black" points="313.93,-333.49 318.99,-324.19 309.23,-328.3 313.93,-333.49"/>
</g>
<!-- [root] aws_route_table_association.net_1_subnet_1_rt (expand)&#45;&gt;[root] aws_subnet.net_1_subnet_1 (expand) -->
<g id="edge13" class="edge">
<title>[root] aws_route_table_association.net_1_subnet_1_rt (expand)&#45;&gt;[root] aws_subnet.net_1_subnet_1 (expand)</title>
<path fill="none" stroke="black" d="M176.05,-431.87C169.04,-407.56 156.12,-362.82 147.8,-334.01"/>
<polygon fill="black" stroke="black" points="151.1,-332.83 144.96,-324.19 144.37,-334.77 151.1,-332.83"/>
</g>
<!-- [root] aws_security_group.sec_grp_1 (expand)&#45;&gt;[root] aws_vpc.net_1 (expand) -->
<g id="edge14" class="edge">
<title>[root] aws_security_group.sec_grp_1 (expand)&#45;&gt;[root] aws_vpc.net_1 (expand)</title>
<path fill="none" stroke="black" d="M526.36,-287.79C517.29,-278.05 506.75,-265.2 500,-252 490.04,-232.52 484.15,-208.38 480.83,-190.16"/>
<polygon fill="black" stroke="black" points="484.26,-189.48 479.16,-180.19 477.36,-190.63 484.26,-189.48"/>
</g>
<!-- [root] var.accessible_from -->
<g id="node15" class="node">
<title>[root] var.accessible_from</title>
<polygon fill="none" stroke="black" points="627.5,-252 508.5,-252 508.5,-216 633.5,-216 633.5,-246 627.5,-252"/>
<polyline fill="none" stroke="black" points="627.5,-252 627.5,-246 "/>
<polyline fill="none" stroke="black" points="633.5,-246 627.5,-246 "/>
<text text-anchor="middle" x="571" y="-230.3" font-family="Times,serif" font-size="14.00">var.accessible_from</text>
</g>
<!-- [root] aws_security_group.sec_grp_1 (expand)&#45;&gt;[root] var.accessible_from -->
<g id="edge15" class="edge">
<title>[root] aws_security_group.sec_grp_1 (expand)&#45;&gt;[root] var.accessible_from</title>
<path fill="none" stroke="black" d="M550.67,-287.7C553.71,-279.81 557.38,-270.3 560.76,-261.55"/>
<polygon fill="black" stroke="black" points="564.07,-262.69 564.4,-252.1 557.54,-260.17 564.07,-262.69"/>
</g>
<!-- [root] aws_subnet.net_1_subnet_1 (expand)&#45;&gt;[root] aws_internet_gateway.net_1_gw_1 (expand) -->
<g id="edge16" class="edge">
<title>[root] aws_subnet.net_1_subnet_1 (expand)&#45;&gt;[root] aws_internet_gateway.net_1_gw_1 (expand)</title>
<path fill="none" stroke="black" d="M190.62,-287.97C219.81,-278.14 256.69,-265.73 287.42,-255.39"/>
<polygon fill="black" stroke="black" points="288.8,-258.62 297.16,-252.11 286.56,-251.98 288.8,-258.62"/>
</g>
<!-- [root] data.aws_availability_zone.avail_zone (expand) -->
<g id="node12" class="node">
<title>[root] data.aws_availability_zone.avail_zone (expand)</title>
<polygon fill="none" stroke="black" points="226,-252 0,-252 0,-216 226,-216 226,-252"/>
<text text-anchor="middle" x="113" y="-230.3" font-family="Times,serif" font-size="14.00">data.aws_availability_zone.avail_zone</text>
</g>
<!-- [root] aws_subnet.net_1_subnet_1 (expand)&#45;&gt;[root] data.aws_availability_zone.avail_zone (expand) -->
<g id="edge17" class="edge">
<title>[root] aws_subnet.net_1_subnet_1 (expand)&#45;&gt;[root] data.aws_availability_zone.avail_zone (expand)</title>
<path fill="none" stroke="black" d="M133.33,-287.7C130.29,-279.81 126.62,-270.3 123.24,-261.55"/>
<polygon fill="black" stroke="black" points="126.46,-260.17 119.6,-252.1 119.93,-262.69 126.46,-260.17"/>
</g>
<!-- [root] aws_vpc.net_1 (expand)&#45;&gt;[root] provider[&quot;registry.terraform.io/hashicorp/aws&quot;] -->
<g id="edge18" class="edge">
<title>[root] aws_vpc.net_1 (expand)&#45;&gt;[root] provider[&quot;registry.terraform.io/hashicorp/aws&quot;]</title>
<path fill="none" stroke="black" d="M476.01,-143.7C475.57,-135.98 475.04,-126.71 474.55,-118.11"/>
<polygon fill="black" stroke="black" points="478.04,-117.89 473.98,-108.1 471.05,-118.29 478.04,-117.89"/>
</g>
<!-- [root] aws_vpc.net_1 (expand)&#45;&gt;[root] var.prefix -->
<g id="edge19" class="edge">
<title>[root] aws_vpc.net_1 (expand)&#45;&gt;[root] var.prefix</title>
<path fill="none" stroke="black" d="M526.13,-153.52C576.36,-145.3 656.64,-130.55 733.6,-108.17"/>
<polygon fill="black" stroke="black" points="734.85,-111.45 743.45,-105.26 732.87,-104.74 734.85,-111.45"/>
</g>
<!-- [root] data.aws_ami.debian_image (expand)&#45;&gt;[root] provider[&quot;registry.terraform.io/hashicorp/aws&quot;] -->
<g id="edge20" class="edge">
<title>[root] data.aws_ami.debian_image (expand)&#45;&gt;[root] provider[&quot;registry.terraform.io/hashicorp/aws&quot;]</title>
<path fill="none" stroke="black" d="M665.96,-359.61C668.61,-328.47 670.22,-262.12 643,-216 613.63,-166.24 555.93,-130.35 515.95,-110.13"/>
<polygon fill="black" stroke="black" points="517.46,-106.97 506.95,-105.68 514.37,-113.25 517.46,-106.97"/>
</g>
<!-- [root] data.aws_availability_zone.avail_zone (expand)&#45;&gt;[root] provider[&quot;registry.terraform.io/hashicorp/aws&quot;] -->
<g id="edge21" class="edge">
<title>[root] data.aws_availability_zone.avail_zone (expand)&#45;&gt;[root] provider[&quot;registry.terraform.io/hashicorp/aws&quot;]</title>
<path fill="none" stroke="black" d="M111.38,-215.86C110.51,-195.64 112.48,-162.45 132,-144 158.93,-118.54 239.45,-105.31 315.48,-98.44"/>
<polygon fill="black" stroke="black" points="316.03,-101.9 325.69,-97.55 315.42,-94.93 316.03,-101.9"/>
</g>
<!-- [root] var.aws_zone -->
<g id="node17" class="node">
<title>[root] var.aws_zone</title>
<polygon fill="none" stroke="black" points="225,-180 141,-180 141,-144 231,-144 231,-174 225,-180"/>
<polyline fill="none" stroke="black" points="225,-180 225,-174 "/>
<polyline fill="none" stroke="black" points="231,-174 225,-174 "/>
<text text-anchor="middle" x="186" y="-158.3" font-family="Times,serif" font-size="14.00">var.aws_zone</text>
</g>
<!-- [root] data.aws_availability_zone.avail_zone (expand)&#45;&gt;[root] var.aws_zone -->
<g id="edge22" class="edge">
<title>[root] data.aws_availability_zone.avail_zone (expand)&#45;&gt;[root] var.aws_zone</title>
<path fill="none" stroke="black" d="M131.04,-215.7C140.06,-207.05 151.12,-196.45 160.94,-187.03"/>
<polygon fill="black" stroke="black" points="163.37,-189.55 168.16,-180.1 158.52,-184.5 163.37,-189.55"/>
</g>
<!-- [root] output.informations -->
<g id="node13" class="node">
<title>[root] output.informations</title>
<polygon fill="none" stroke="black" points="358.5,-612 239.5,-612 239.5,-576 364.5,-576 364.5,-606 358.5,-612"/>
<polyline fill="none" stroke="black" points="358.5,-612 358.5,-606 "/>
<polyline fill="none" stroke="black" points="364.5,-606 358.5,-606 "/>
<text text-anchor="middle" x="302" y="-590.3" font-family="Times,serif" font-size="14.00">output.informations</text>
</g>
<!-- [root] local.ip_address (expand) -->
<g id="node20" class="node">
<title>[root] local.ip_address (expand)</title>
<ellipse fill="none" stroke="black" cx="281" cy="-522" rx="124.28" ry="18"/>
<text text-anchor="middle" x="281" y="-518.3" font-family="Times,serif" font-size="14.00">[root] local.ip_address (expand)</text>
</g>
<!-- [root] output.informations&#45;&gt;[root] local.ip_address (expand) -->
<g id="edge27" class="edge">
<title>[root] output.informations&#45;&gt;[root] local.ip_address (expand)</title>
<path fill="none" stroke="black" d="M296.81,-575.7C294.47,-567.9 291.65,-558.51 289.05,-549.83"/>
<polygon fill="black" stroke="black" points="292.36,-548.68 286.13,-540.1 285.65,-550.69 292.36,-548.68"/>
</g>
<!-- [root] var.aws_region -->
<g id="node16" class="node">
<title>[root] var.aws_region</title>
<polygon fill="none" stroke="black" points="516.5,-36 423.5,-36 423.5,0 522.5,0 522.5,-30 516.5,-36"/>
<polyline fill="none" stroke="black" points="516.5,-36 516.5,-30 "/>
<polyline fill="none" stroke="black" points="522.5,-30 516.5,-30 "/>
<text text-anchor="middle" x="473" y="-14.3" font-family="Times,serif" font-size="14.00">var.aws_region</text>
</g>
<!-- [root] provider[&quot;registry.terraform.io/hashicorp/aws&quot;]&#45;&gt;[root] var.aws_region -->
<g id="edge31" class="edge">
<title>[root] provider[&quot;registry.terraform.io/hashicorp/aws&quot;]&#45;&gt;[root] var.aws_region</title>
<path fill="none" stroke="black" d="M473,-71.7C473,-63.98 473,-54.71 473,-46.11"/>
<polygon fill="black" stroke="black" points="476.5,-46.1 473,-36.1 469.5,-46.1 476.5,-46.1"/>
</g>
<!-- [root] local.ip_address (expand)&#45;&gt;[root] aws_eip.pub_addr_1 (expand) -->
<g id="edge23" class="edge">
<title>[root] local.ip_address (expand)&#45;&gt;[root] aws_eip.pub_addr_1 (expand)</title>
<path fill="none" stroke="black" d="M323.67,-504.94C349.86,-495.08 383.68,-482.36 411.88,-471.74"/>
<polygon fill="black" stroke="black" points="413.48,-474.88 421.6,-468.08 411.01,-468.33 413.48,-474.88"/>
</g>
<!-- [root] meta.count&#45;boundary (EachMode fixup) -->
<g id="node21" class="node">
<title>[root] meta.count&#45;boundary (EachMode fixup)</title>
<ellipse fill="none" stroke="black" cx="384" cy="-666" rx="176.57" ry="18"/>
<text text-anchor="middle" x="384" y="-662.3" font-family="Times,serif" font-size="14.00">[root] meta.count&#45;boundary (EachMode fixup)</text>
</g>
<!-- [root] meta.count&#45;boundary (EachMode fixup)&#45;&gt;[root] aws_instance.virtual_machine (expand) -->
<g id="edge24" class="edge">
<title>[root] meta.count&#45;boundary (EachMode fixup)&#45;&gt;[root] aws_instance.virtual_machine (expand)</title>
<path fill="none" stroke="black" d="M500.8,-652.48C634.14,-635.5 839.96,-600.16 887,-540 925.83,-490.35 840.98,-468.3 765.02,-458.57"/>
<polygon fill="black" stroke="black" points="765.2,-455.07 754.85,-457.33 764.36,-462.01 765.2,-455.07"/>
</g>
<!-- [root] meta.count&#45;boundary (EachMode fixup)&#45;&gt;[root] aws_route_table_association.net_1_subnet_1_rt (expand) -->
<g id="edge25" class="edge">
<title>[root] meta.count&#45;boundary (EachMode fixup)&#45;&gt;[root] aws_route_table_association.net_1_subnet_1_rt (expand)</title>
<path fill="none" stroke="black" d="M306.59,-649.79C249.16,-633.69 176.15,-601.69 148,-540 138.42,-519 149.2,-494.33 160.93,-476.3"/>
<polygon fill="black" stroke="black" points="163.85,-478.24 166.68,-468.03 158.1,-474.24 163.85,-478.24"/>
</g>
<!-- [root] meta.count&#45;boundary (EachMode fixup)&#45;&gt;[root] output.informations -->
<g id="edge26" class="edge">
<title>[root] meta.count&#45;boundary (EachMode fixup)&#45;&gt;[root] output.informations</title>
<path fill="none" stroke="black" d="M364.15,-648.05C353.85,-639.26 341.1,-628.38 329.84,-618.76"/>
<polygon fill="black" stroke="black" points="331.83,-615.86 321.95,-612.03 327.28,-621.19 331.83,-615.86"/>
</g>
<!-- [root] provider[&quot;registry.terraform.io/hashicorp/aws&quot;] (close) -->
<g id="node22" class="node">
<title>[root] provider[&quot;registry.terraform.io/hashicorp/aws&quot;] (close)</title>
<ellipse fill="none" stroke="black" cx="651" cy="-522" rx="227.46" ry="18"/>
<text text-anchor="middle" x="651" y="-518.3" font-family="Times,serif" font-size="14.00">[root] provider[&quot;registry.terraform.io/hashicorp/aws&quot;] (close)</text>
</g>
<!-- [root] provider[&quot;registry.terraform.io/hashicorp/aws&quot;] (close)&#45;&gt;[root] aws_eip.pub_addr_1 (expand) -->
<g id="edge28" class="edge">
<title>[root] provider[&quot;registry.terraform.io/hashicorp/aws&quot;] (close)&#45;&gt;[root] aws_eip.pub_addr_1 (expand)</title>
<path fill="none" stroke="black" d="M606.93,-504.23C581.25,-494.46 548.66,-482.07 521.39,-471.69"/>
<polygon fill="black" stroke="black" points="522.58,-468.4 511.99,-468.12 520.09,-474.94 522.58,-468.4"/>
</g>
<!-- [root] provider[&quot;registry.terraform.io/hashicorp/aws&quot;] (close)&#45;&gt;[root] aws_instance.virtual_machine (expand) -->
<g id="edge29" class="edge">
<title>[root] provider[&quot;registry.terraform.io/hashicorp/aws&quot;] (close)&#45;&gt;[root] aws_instance.virtual_machine (expand)</title>
<path fill="none" stroke="black" d="M654.21,-503.7C655.65,-495.98 657.37,-486.71 658.96,-478.11"/>
<polygon fill="black" stroke="black" points="662.44,-478.58 660.82,-468.1 655.56,-477.3 662.44,-478.58"/>
</g>
<!-- [root] provider[&quot;registry.terraform.io/hashicorp/aws&quot;] (close)&#45;&gt;[root] aws_route_table_association.net_1_subnet_1_rt (expand) -->
<g id="edge30" class="edge">
<title>[root] provider[&quot;registry.terraform.io/hashicorp/aws&quot;] (close)&#45;&gt;[root] aws_route_table_association.net_1_subnet_1_rt (expand)</title>
<path fill="none" stroke="black" d="M549.31,-505.85C477.75,-495.2 381.56,-480.87 305.42,-469.53"/>
<polygon fill="black" stroke="black" points="305.7,-466.03 295.29,-468.02 304.67,-472.96 305.7,-466.03"/>
</g>
<!-- [root] root -->
<g id="node23" class="node">
<title>[root] root</title>
<ellipse fill="none" stroke="black" cx="486" cy="-738" rx="47.39" ry="18"/>
<text text-anchor="middle" x="486" y="-734.3" font-family="Times,serif" font-size="14.00">[root] root</text>
</g>
<!-- [root] root&#45;&gt;[root] meta.count&#45;boundary (EachMode fixup) -->
<g id="edge32" class="edge">
<title>[root] root&#45;&gt;[root] meta.count&#45;boundary (EachMode fixup)</title>
<path fill="none" stroke="black" d="M464.12,-721.98C450.39,-712.56 432.42,-700.23 416.98,-689.64"/>
<polygon fill="black" stroke="black" points="418.94,-686.73 408.71,-683.96 414.98,-692.5 418.94,-686.73"/>
</g>
<!-- [root] root&#45;&gt;[root] provider[&quot;registry.terraform.io/hashicorp/aws&quot;] (close) -->
<g id="edge33" class="edge">
<title>[root] root&#45;&gt;[root] provider[&quot;registry.terraform.io/hashicorp/aws&quot;] (close)</title>
<path fill="none" stroke="black" d="M515.26,-723.6C532.85,-714.42 554.7,-700.85 570,-684 606.4,-643.9 630.61,-584.42 642.47,-550.1"/>
<polygon fill="black" stroke="black" points="645.89,-550.9 645.75,-540.31 639.26,-548.68 645.89,-550.9"/>
</g>
</g>
</svg>
